<svg width="76" height="73" viewBox="0 0 76 73" fill="none" xmlns="http://www.w3.org/2000/svg">
<path fill-rule="evenodd" clip-rule="evenodd" d="M3.68376 17.5711C2.73509 17.2204 1.74926 16.9445 0.733323 16.7504C0.658733 16.7362 0.583982 16.7224 0.509062 16.709C-0.169688 16.5879 -0.169688 15.6143 0.509062 15.4932C0.583982 15.4798 0.658733 15.466 0.733323 15.4518C1.74926 15.2577 2.73509 14.9818 3.68376 14.6311C4.25149 14.4212 4.80592 14.1846 5.34552 13.9226C9.08237 12.1087 12.1087 9.08238 13.9227 5.34552C14.1846 4.80592 14.4213 4.2515 14.6311 3.68376C14.9818 2.73509 15.2577 1.74926 15.4518 0.733323C15.466 0.658733 15.4798 0.583982 15.4932 0.509062C15.6143 -0.169688 16.5879 -0.169688 16.709 0.509062C16.7224 0.583982 16.7362 0.658733 16.7504 0.733323C16.9445 1.74926 17.2204 2.73509 17.5711 3.68376C17.781 4.25149 18.0176 4.80592 18.2796 5.34552C20.0935 9.08238 23.1198 12.1087 26.8567 13.9226C27.3963 14.1846 27.9507 14.4212 28.5184 14.6311C29.4671 14.9818 30.4529 15.2577 31.4689 15.4518C31.5435 15.466 31.6182 15.4798 31.6931 15.4932C32.3719 15.6143 32.3719 16.5879 31.6931 16.709C31.6182 16.7224 31.5435 16.7362 31.4689 16.7504C30.4529 16.9445 29.4671 17.2204 28.5184 17.5711C27.9507 17.781 27.3963 18.0176 26.8567 18.2796C23.1198 20.0935 20.0935 23.1198 18.2796 26.8567C18.0176 27.3963 17.781 27.9507 17.5711 28.5184C17.2204 29.4671 16.9445 30.4529 16.7504 31.4689C16.7362 31.5434 16.7224 31.6182 16.709 31.6931C16.5879 32.3719 15.6143 32.3719 15.4932 31.6931C15.4798 31.6182 15.466 31.5434 15.4518 31.4689C15.2577 30.4529 14.9818 29.4671 14.6311 28.5184C14.4213 27.9507 14.1846 27.3963 13.9227 26.8567C12.1087 23.1198 9.08237 20.0935 5.34552 18.2796C4.80592 18.0176 4.2515 17.781 3.68376 17.5711ZM26.3644 41.69C25.7009 41.5112 25.0282 41.3543 24.347 41.2201C24.2405 41.1992 24.1339 41.1788 24.0271 41.1589L23.9947 41.1529L23.9509 41.1449C23.8835 41.1326 23.8095 41.1194 23.6615 41.0929L23.6098 41.0837C22.5243 40.8783 22.5243 39.3239 23.6098 39.1185L23.6615 39.1093C23.8095 39.0828 23.8835 39.0696 23.9509 39.0573L23.9947 39.0493L24.0271 39.0433C24.1339 39.0234 24.2405 39.003 24.3469 38.9821C25.0281 38.8479 25.7009 38.691 26.3644 38.5122C26.9311 38.3595 27.4911 38.1907 28.0439 38.0065C36.9875 35.0252 44.0252 27.9875 47.0065 19.0439C47.1907 18.4911 47.3595 17.9311 47.5122 17.3643C47.691 16.7009 47.8479 16.0281 47.9821 15.3469C48.003 15.2405 48.0234 15.1339 48.0433 15.0271L48.0493 14.9947L48.0573 14.9509C48.0695 14.8843 48.0826 14.8112 48.1084 14.6665L48.1093 14.6615L48.1185 14.6098C48.3239 13.5243 49.8783 13.5243 50.0837 14.6098L50.093 14.6615C50.1194 14.8095 50.1326 14.8835 50.1449 14.9509L50.1529 14.9947L50.1589 15.0271C50.1788 15.1339 50.1992 15.2405 50.2201 15.3469C50.3543 16.0282 50.5112 16.7009 50.69 17.3643C50.8427 17.9311 51.0115 18.4911 51.1957 19.0439C54.177 27.9875 61.2147 35.0252 70.1583 38.0065C70.7111 38.1907 71.2711 38.3595 71.8379 38.5122C72.5013 38.691 73.1741 38.8479 73.8553 38.9821C73.9617 39.003 74.0683 39.0234 74.1751 39.0433L74.2075 39.0493L74.2513 39.0573C74.3187 39.0696 74.3927 39.0828 74.5407 39.1093L74.5924 39.1185C75.6779 39.3239 75.6779 40.8783 74.5924 41.0837L74.5407 41.0929L74.3841 41.1209L74.2513 41.1449L74.2075 41.1529L74.1751 41.1589C74.0683 41.1788 73.9617 41.1992 73.8553 41.2201C73.1741 41.3543 72.5013 41.5112 71.8379 41.69C71.2711 41.8427 70.7111 42.0115 70.1583 42.1957C61.2147 45.177 54.177 52.2147 51.1957 61.1583C51.0115 61.7111 50.8427 62.2711 50.69 62.8379C50.5112 63.5013 50.3543 64.1741 50.2201 64.8553C50.1992 64.9617 50.1788 65.0683 50.1589 65.1751L50.1529 65.2075L50.1449 65.2513L50.127 65.3499L50.094 65.535L50.0837 65.5924C49.8783 66.6779 48.3239 66.6779 48.1185 65.5924L48.1093 65.5407C48.0829 65.393 48.0696 65.3186 48.0573 65.2513L48.0493 65.2075L48.0433 65.1751C48.0234 65.0683 48.003 64.9617 47.9821 64.8553C47.8479 64.174 47.691 63.5013 47.5122 62.8379C47.3595 62.2711 47.1907 61.7111 47.0065 61.1583C44.0252 52.2147 36.9875 45.177 28.0439 42.1957C27.4911 42.0115 26.9311 41.8427 26.3644 41.69ZM11.3952 62.5112C12.5361 62.7291 13.6168 63.1105 14.6124 63.6302C15.0553 63.8614 15.4813 64.1199 15.8882 64.4037C17.0221 65.1942 18.008 66.1802 18.7986 67.314C19.0823 67.721 19.3409 68.147 19.572 68.5898C20.0918 69.5854 20.4731 70.6662 20.691 71.8071C20.7 71.8542 20.7088 71.9014 20.7172 71.9487C20.7937 72.3774 21.4086 72.3774 21.4851 71.9487C21.4935 71.9014 21.5022 71.8542 21.5112 71.8071C21.7292 70.6662 22.1105 69.5854 22.6302 68.5898C22.8614 68.147 23.12 67.721 23.4037 67.314C24.1942 66.1802 25.1802 65.1942 26.3141 64.4037C26.721 64.1199 27.147 63.8614 27.5898 63.6302C28.5855 63.1105 29.6662 62.7291 30.8071 62.5112C30.8542 62.5022 30.9014 62.4935 30.9487 62.485C31.3774 62.4086 31.3774 61.7936 30.9487 61.7172C30.9014 61.7087 30.8542 61.7 30.8071 61.691C29.6662 61.4731 28.5855 61.0917 27.5898 60.572C27.147 60.3408 26.721 60.0823 26.3141 59.7985C25.1802 59.008 24.1942 58.022 23.4037 56.8882C23.12 56.4812 22.8614 56.0552 22.6302 55.6124C22.1105 54.6168 21.7292 53.536 21.5112 52.3951C21.5022 52.348 21.4935 52.3008 21.4851 52.2535C21.4086 51.8248 20.7937 51.8248 20.7172 52.2535C20.7088 52.3008 20.7 52.348 20.691 52.3951C20.4731 53.536 20.0918 54.6168 19.572 55.6124C19.3409 56.0552 19.0823 56.4812 18.7986 56.8882C18.008 58.022 17.0221 59.008 15.8882 59.7985C15.4813 60.0823 15.0553 60.3408 14.6124 60.572C13.6168 61.0917 12.5361 61.4731 11.3952 61.691C11.3481 61.7 11.3009 61.7087 11.2535 61.7172C10.8249 61.7936 10.8249 62.4086 11.2535 62.485C11.3009 62.4935 11.3481 62.5022 11.3952 62.5112Z" fill="white"/>
</svg>
